<mxfile host="app.diagrams.net" agent="Mozilla/5.0 (Macintosh; Intel Mac OS X 10_15_7) AppleWebKit/537.36 (KHTML, like Gecko) Chrome/137.0.0.0 Safari/537.36" version="25.0.3">
  <diagram name="第 1 页" id="jgcca4Sezbr_hQ2PyFmH">
    <mxGraphModel>
      <root>
        <mxCell id="0" />
        <mxCell id="1" parent="0" />
        <mxCell id="2" value="AWS Lambda" style="whiteSpace=wrap;strokeWidth=2;" vertex="1" parent="1">
          <mxGeometry x="329" y="129" width="150" height="49" as="geometry" />
        </mxCell>
        <mxCell id="3" value="Retrieve Secret" style="whiteSpace=wrap;strokeWidth=2;" vertex="1" parent="1">
          <mxGeometry x="703" y="251" width="170" height="49" as="geometry" />
        </mxCell>
        <mxCell id="4" value="API Gateway" style="whiteSpace=wrap;strokeWidth=2;" vertex="1" parent="1">
          <mxGeometry x="402" y="251" width="150" height="49" as="geometry" />
        </mxCell>
        <mxCell id="5" value="HashiCorp Vault" style="whiteSpace=wrap;strokeWidth=2;" vertex="1" parent="1">
          <mxGeometry x="102" y="372" width="173" height="49" as="geometry" />
        </mxCell>
        <mxCell id="6" value="Secret Data" style="whiteSpace=wrap;strokeWidth=2;" vertex="1" parent="1">
          <mxGeometry x="328" y="493" width="143" height="49" as="geometry" />
        </mxCell>
        <mxCell id="7" value="AWS IAM Role" style="whiteSpace=wrap;strokeWidth=2;" vertex="1" parent="1">
          <mxGeometry x="82" y="251" width="155" height="49" as="geometry" />
        </mxCell>
        <mxCell id="8" value="Application Logs" style="whiteSpace=wrap;strokeWidth=2;" vertex="1" parent="1">
          <mxGeometry x="230" y="8" width="177" height="49" as="geometry" />
        </mxCell>
        <mxCell id="9" value="Monitoring Tools" style="whiteSpace=wrap;strokeWidth=2;" vertex="1" parent="1">
          <mxGeometry x="457" y="8" width="176" height="49" as="geometry" />
        </mxCell>
        <mxCell id="10" value="Error Logging" style="whiteSpace=wrap;strokeWidth=2;" vertex="1" parent="1">
          <mxGeometry x="820" y="372" width="155" height="49" as="geometry" />
        </mxCell>
        <mxCell id="11" value="Alerting System" style="whiteSpace=wrap;strokeWidth=2;" vertex="1" parent="1">
          <mxGeometry x="811" y="493" width="172" height="49" as="geometry" />
        </mxCell>
        <mxCell id="12" value="Invoke" style="curved=1;startArrow=none;endArrow=block;exitX=1;exitY=0.74;entryX=0.5;entryY=-0.01;" edge="1" parent="1" source="2" target="3">
          <mxGeometry relative="1" as="geometry">
            <Array as="points">
              <mxPoint x="788" y="214" />
            </Array>
          </mxGeometry>
        </mxCell>
        <mxCell id="13" value="Use API Gateway" style="curved=1;startArrow=none;endArrow=block;exitX=0.55;exitY=1;entryX=0.36;entryY=-0.01;" edge="1" parent="1" source="2" target="4">
          <mxGeometry relative="1" as="geometry">
            <Array as="points">
              <mxPoint x="423" y="214" />
            </Array>
          </mxGeometry>
        </mxCell>
        <mxCell id="14" value="Trigger" style="curved=1;startArrow=none;endArrow=block;exitX=0.65;exitY=-0.01;entryX=0.84;entryY=1;" edge="1" parent="1" source="4" target="2">
          <mxGeometry relative="1" as="geometry">
            <Array as="points">
              <mxPoint x="531" y="214" />
            </Array>
          </mxGeometry>
        </mxCell>
        <mxCell id="15" value="Connect to" style="curved=1;startArrow=none;endArrow=block;exitX=0;exitY=0.63;entryX=0.18;entryY=0;" edge="1" parent="1" source="3" target="5">
          <mxGeometry relative="1" as="geometry">
            <Array as="points">
              <mxPoint x="49" y="335" />
            </Array>
          </mxGeometry>
        </mxCell>
        <mxCell id="16" value="Retrieve Secret" style="curved=1;startArrow=none;endArrow=block;exitX=0.5;exitY=0.99;entryX=0;entryY=0.08;" edge="1" parent="1" source="5" target="6">
          <mxGeometry relative="1" as="geometry">
            <Array as="points">
              <mxPoint x="189" y="457" />
            </Array>
          </mxGeometry>
        </mxCell>
        <mxCell id="17" value="Return Data" style="curved=1;startArrow=none;endArrow=block;exitX=1.01;exitY=0.22;entryX=0.33;entryY=0.98;" edge="1" parent="1" source="6" target="3">
          <mxGeometry relative="1" as="geometry">
            <Array as="points">
              <mxPoint x="715" y="457" />
              <mxPoint x="715" y="335" />
            </Array>
          </mxGeometry>
        </mxCell>
        <mxCell id="18" value="Environment Variables" style="curved=1;startArrow=none;endArrow=block;exitX=0;exitY=0.81;entryX=0.36;entryY=-0.01;" edge="1" parent="1" source="2" target="7">
          <mxGeometry relative="1" as="geometry">
            <Array as="points">
              <mxPoint x="104" y="214" />
            </Array>
          </mxGeometry>
        </mxCell>
        <mxCell id="19" value="Access Policy" style="curved=1;startArrow=none;endArrow=block;exitX=0.5;exitY=0.98;entryX=0.43;entryY=0;" edge="1" parent="1" source="7" target="5">
          <mxGeometry relative="1" as="geometry">
            <Array as="points">
              <mxPoint x="159" y="335" />
            </Array>
          </mxGeometry>
        </mxCell>
        <mxCell id="20" value="Lambda Execution" style="curved=1;startArrow=none;endArrow=block;exitX=0.79;exitY=-0.01;entryX=0.15;entryY=1;" edge="1" parent="1" source="7" target="2">
          <mxGeometry relative="1" as="geometry">
            <Array as="points">
              <mxPoint x="274" y="214" />
            </Array>
          </mxGeometry>
        </mxCell>
        <mxCell id="21" value="Logs" style="curved=1;startArrow=none;endArrow=block;exitX=0.5;exitY=0.99;entryX=0.27;entryY=0.01;" edge="1" parent="1" source="8" target="2">
          <mxGeometry relative="1" as="geometry">
            <Array as="points">
              <mxPoint x="319" y="93" />
            </Array>
          </mxGeometry>
        </mxCell>
        <mxCell id="22" value="Metrics" style="curved=1;startArrow=none;endArrow=block;exitX=0.5;exitY=0.99;entryX=0.88;entryY=0.01;" edge="1" parent="1" source="9" target="2">
          <mxGeometry relative="1" as="geometry">
            <Array as="points">
              <mxPoint x="545" y="93" />
            </Array>
          </mxGeometry>
        </mxCell>
        <mxCell id="23" value="Response" style="curved=1;startArrow=none;endArrow=block;exitX=1;exitY=0.25;entryX=1;entryY=0.92;" edge="1" parent="1" source="5" target="2">
          <mxGeometry relative="1" as="geometry">
            <Array as="points">
              <mxPoint x="627" y="335" />
              <mxPoint x="627" y="214" />
            </Array>
          </mxGeometry>
        </mxCell>
        <mxCell id="24" value="Error Handling" style="curved=1;startArrow=none;endArrow=block;exitX=0.76;exitY=0.98;entryX=0.5;entryY=0;" edge="1" parent="1" source="3" target="10">
          <mxGeometry relative="1" as="geometry">
            <Array as="points">
              <mxPoint x="897" y="335" />
            </Array>
          </mxGeometry>
        </mxCell>
        <mxCell id="25" value="Alert" style="curved=1;startArrow=none;endArrow=block;exitX=0.5;exitY=0.99;entryX=0.5;entryY=0;" edge="1" parent="1" source="10" target="11">
          <mxGeometry relative="1" as="geometry">
            <Array as="points" />
          </mxGeometry>
        </mxCell>
      </root>
    </mxGraphModel>
  </diagram>
</mxfile>
